<svg width="18" height="18" viewBox="0 0 18 18" fill="none" xmlns="http://www.w3.org/2000/svg">
<g clip-path="url(#clip0_127_128)">
<path fill-rule="evenodd" clip-rule="evenodd" d="M12.6326 4.91089C11.7033 4.02461 10.4632 3.54179 9.18005 3.56163C6.83209 3.56163 4.83797 5.14567 4.12696 7.27867C3.74996 8.39644 3.74996 9.60685 4.12696 10.7246H4.13026C4.84457 12.8543 6.83538 14.4384 9.18335 14.4384C10.3954 14.4384 11.4359 14.1284 12.2423 13.5808V13.5786C13.1915 12.9502 13.8396 11.9614 14.0414 10.8437H9.18005V7.37794H17.6691C17.775 7.97982 17.8246 8.59492 17.8246 9.20671C17.8246 11.9441 16.8463 14.2584 15.1441 15.8259L15.1459 15.8273C13.6544 17.203 11.6074 18 9.18005 18C5.77714 18 2.66526 16.0819 1.13742 13.0428C-0.139072 10.4997 -0.139069 7.50359 1.13743 4.96052C2.66526 1.91808 5.77714 -3.85207e-06 9.18005 -3.85207e-06C11.4156 -0.0264599 13.575 0.813518 15.2021 2.34135L12.6326 4.91089Z" fill="#588B8B"/>
</g>
<defs>
<clipPath id="clip0_127_128">
<rect width="18" height="18" fill="white"/>
</clipPath>
</defs>
</svg>
